<?xml version="1.0" encoding="UTF-8"?>
<svg id="Layer_1" data-name="Layer 1" xmlns="http://www.w3.org/2000/svg" viewBox="0 0 1920 1080">
  <defs>
    <style>
      .cls-1, .cls-2 {
        stroke-width: 3px;
      }

      .cls-1, .cls-2, .cls-3 {
        stroke: #fff;
        stroke-miterlimit: 10;
      }

      .cls-1, .cls-4 {
        fill: #fff;
      }

      .cls-5 {
        fill: #2b8140;
      }

      .cls-5, .cls-4, .cls-6 {
        stroke-width: 0px;
      }

      .cls-2, .cls-3 {
        fill: none;
      }

      .cls-6 {
        fill: #156e38;
      }

      .cls-3 {
        stroke-width: 4px;
      }
    </style>
  </defs>
  <rect class="cls-6" width="1920" height="1080"/>
  <rect class="cls-5" x="79.5" y="44" width="245" height="992"/>
  <rect class="cls-5" x="571" y="42" width="245" height="994"/>
  <rect class="cls-5" x="1103" y="44" width="245" height="991"/>
  <rect class="cls-5" x="1595" y="44" width="245" height="991"/>
  <path class="cls-4" d="m1840,44.5v990H80V44.5h1760m5-5H75v1000h1770V39.5h0Z"/>
  <path class="cls-2" d="m191.5,42.5c-.32,10.58-2.68,42.88-27,72-32.67,39.12-79.27,41.7-87,42"/>
  <path class="cls-2" d="m1840.41,157c-10.58-.32-42.88-2.68-72-27-39.12-32.67-41.7-79.27-42-87"/>
  <path class="cls-2" d="m1727.4,1039.99c.32-10.58,2.68-42.88,27-72,32.67-39.12,79.27-41.7,87-42"/>
  <path class="cls-2" d="m78.49,925.49c10.58.32,42.88,2.68,72,27,39.12,32.67,41.7,79.27,42,87"/>
  <line class="cls-3" x1="960" y1="39.5" x2="960" y2="1036"/>
  <circle class="cls-3" cx="960.5" cy="523.5" r="142.5"/>
  <circle class="cls-1" cx="959.5" cy="523.5" r="16"/>
  <rect class="cls-3" x="79.5" y="310.5" width="179" height="426"/>
  <rect class="cls-3" x="79.5" y="426.5" width="76" height="194"/>
  <path class="cls-3" d="m258.5,449s24.34,17.28,24.5,74.5c.16,57.22-24.5,74.5-24.5,74.5"/>
  <circle class="cls-1" cx="202.5" cy="523.5" r="8"/>
  <rect class="cls-3" x="1661.47" y="292.91" width="179" height="426" transform="translate(3501.95 1011.83) rotate(180)"/>
  <rect class="cls-3" x="1764.47" y="408.91" width="76" height="194" transform="translate(3604.95 1011.83) rotate(180)"/>
  <path class="cls-3" d="m1661.47,580.41s-24.34-17.28-24.5-74.5c-.16-57.22,24.5-74.5,24.5-74.5"/>
  <circle class="cls-1" cx="1717.47" cy="505.91" r="8"/>
</svg>