<svg class="svg-icon" style="width: 1em;height: 1em;vertical-align: middle;fill: currentColor;overflow: hidden;" viewBox="0 0 1024 1024" version="1.1" xmlns="http://www.w3.org/2000/svg"><path d="M896 112c8.832 0 16 7.168 16 16v192a32 32 0 0 1-27.648 31.701333l-4.352 0.298667a32 32 0 0 1-32-32V224.085333l-311.978667 311.936a34.005333 34.005333 0 0 1-51.370666-44.245333l3.328-3.84 311.893333-311.936H704a32 32 0 0 1 0-64H896z"  /><path d="M512 144a32 32 0 0 1-32 32H176v672h672V544a32 32 0 1 1 64 0v336a32 32 0 0 1-32 32H144a32 32 0 0 1-32-32V144a32 32 0 0 1 32-32h336a32 32 0 0 1 32 32z"  /></svg>